Coordinates
version=1
nRows=17
nColumns=34
inDegrees=yes

Units are S.I. units (second, meters, Newtons, ...)
If the header above contains a line with 'inDegrees', this indicates whether rotational values are in degrees (yes) or radians (no).

endheader
time	pelvis_tilt	pelvis_list	pelvis_rotation	pelvis_tx	pelvis_ty	pelvis_tz	hip_flexion_r	hip_adduction_r	hip_rotation_r	knee_angle_r	ankle_angle_r	subtalar_angle_r	mtp_angle_r	hip_flexion_l	hip_adduction_l	hip_rotation_l	knee_angle_l	ankle_angle_l	subtalar_angle_l	mtp_angle_l	lumbar_extension	lumbar_bending	lumbar_rotation	arm_flex_r	arm_add_r	arm_rot_r	elbow_flex_r	pro_sup_r	arm_flex_l	arm_add_l	arm_rot_l	elbow_flex_l	pro_sup_l
      0.00000000	     -2.04445068	      2.10138743	     27.57226608	      0.35100495	      0.98590791	     -0.09455573	      1.47248526	      2.38240942	     -5.90419739	      4.76436139	      4.35549974	     -5.69484431	      0.00000000	      3.96485601	      1.42798541	     -6.00190369	      9.62714048	     -8.68804717	    -17.15679034	      0.00000000	     -6.22752965	     -1.28073861	      2.17590276	      1.02509287	     -5.06183852	     -0.59554062	     26.27828270	     88.38103406	      0.00783608	     -7.26064450	      7.48605173	     23.02207887	     76.36496774
      0.01666670	     -2.70889590	      2.52188943	     28.40413354	      0.34982913	      0.98673212	     -0.09500076	      1.76389174	      1.71674487	     -7.69702110	      4.14603747	      3.58913806	     -5.39476723	      0.00000000	      5.54655974	      2.64022867	     -6.65903158	     11.00688867	     -5.28024788	    -13.37158456	      0.00000000	     -5.26645289	     -2.14054693	      2.01754162	      0.49774626	     -4.30361149	     -4.49911226	     26.42808351	     87.67385796	      0.30567977	     -6.75486583	      3.71708682	     22.86292264	     75.74289762
      0.03333330	     -2.65638553	      2.34095934	     28.76152132	      0.34910363	      0.98871298	     -0.09505886	      1.72541309	      2.17280735	     -9.94594658	      2.52495087	     -0.42500271	     -6.12687970	      0.00000000	      5.70107740	      2.49778032	     -7.47349171	     10.36092902	     -5.07810369	    -10.94736785	      0.00000000	     -5.02838345	     -2.11635408	      1.72703466	      0.47479428	     -3.76310928	     -6.32642103	     26.80011610	     87.42041805	     -0.00436426	     -6.59435091	      2.91355768	     23.03553712	     75.73300170
      0.05000000	     -2.59873972	      2.43506205	     29.06565257	      0.34773700	      0.98918015	     -0.09417560	      1.50712356	      2.23338021	    -10.90164502	      1.84900939	     -1.27753179	     -5.97552497	      0.00000000	      5.70084702	      2.72894577	     -7.98970469	      9.21023621	     -5.87650878	    -10.95917298	      0.00000000	     -5.16098964	     -2.47479096	      1.88484425	      0.20700734	     -3.65891476	     -6.50213841	     26.73748938	     87.38798150	      0.21142207	     -6.84378111	      2.84965448	     23.32401649	     75.76332433
      0.06666670	     -2.04125279	      2.88109721	     29.44018235	      0.34955404	      0.99269774	     -0.09482000	      0.68098680	      2.14712202	    -11.61553531	      1.05469102	     -2.31765483	     -5.57046286	      0.00000000	      4.92795455	      3.12853982	     -8.39210904	      7.79281591	     -8.04227263	    -11.29897166	      0.00000000	     -6.22743516	     -2.58028790	      1.85305895	      0.05223318	     -3.60424255	     -7.04906988	     26.96015952	     87.22897443	      0.66945941	     -6.90402791	      3.12810711	     23.87611801	     76.01908280
      0.08333330	     -2.06778339	      2.84796493	     30.03789190	      0.34955418	      0.99179372	     -0.09403252	      0.70950898	      2.20443916	    -12.23574325	      0.54265293	     -3.04869287	     -5.51197675	      0.00000000	      4.99042460	      3.26392348	     -9.12023487	      6.88365758	    -10.08252613	    -10.74007311	      0.00000000	     -6.26827947	     -2.60856712	      1.65062903	      0.01465056	     -3.56642499	     -7.07220783	     27.01907196	     87.21914006	      1.12940037	     -6.96812328	      3.18958157	     24.00574076	     76.07260190
      0.10000000	     -2.05868822	      2.75707514	     30.31451845	      0.34367013	      0.99355074	     -0.09163503	      0.91741264	      2.20305662	    -12.00994451	      0.88259623	     -3.16929943	     -5.42957592	      0.00000000	      4.91408750	      3.36960300	     -8.36728476	      6.05123940	    -10.35184619	    -10.15063033	      0.00000000	     -6.62319245	     -2.46966899	      1.51792335	      0.21677072	     -3.60345590	     -7.05076252	     27.12877968	     87.22449737	      1.68775194	     -6.87241177	      3.27569970	     24.15293222	     76.12551355
      0.11666670	     -1.49610037	      3.14421148	     30.61987731	      0.34611198	      0.99525177	     -0.09265490	     -0.03801248	      2.18559481	    -12.06941889	      0.66376884	     -3.21345957	     -5.51987125	      0.00000000	      3.93450240	      3.53335288	     -8.30526714	      5.38065579	    -10.55757661	     -8.84892457	      0.00000000	     -7.71666591	     -2.55528595	      1.40238784	      0.32249179	     -3.64624234	     -6.82612241	     27.44679713	     87.31809888	      2.53474967	     -6.90721303	      3.85499442	     23.94109184	     76.47635890
      0.13333330	     -1.52121646	      3.03854912	     30.81526067	      0.34618236	      0.99325181	     -0.09283022	     -0.02509744	      2.27199080	    -12.19895044	      0.57010836	     -3.18823854	     -5.68883726	      0.00000000	      3.90857194	      3.51029726	     -7.96677251	      4.97766057	    -10.79717700	     -8.34105921	      0.00000000	     -7.94805431	     -2.45218592	      1.34625767	      0.32057751	     -3.68660971	     -6.79998877	     27.47400129	     87.34316766	      2.94715995	     -6.87233561	      3.95379107	     24.02730694	     76.54380837
      0.15000000	     -1.52646161	      2.98773442	     31.08597440	      0.34968931	      0.99264197	     -0.09548332	     -0.36951500	      2.37962413	    -12.32718164	      0.00000000	     -3.34348671	     -5.74265572	      0.00000000	      3.52507576	      3.52818334	     -7.96614312	      4.37609676	    -11.38619055	     -7.82273042	      0.00000000	     -7.95608827	     -2.39620897	      1.21931650	      0.09605868	     -3.67185835	     -6.78611274	     27.42005574	     87.37201321	      3.15495151	     -6.87888935	      4.05079852	     24.04972425	     76.61346443
      0.16666670	     -1.12339794	      3.37288832	     30.91324519	      0.34977663	      0.99256024	     -0.09525800	     -0.99802552	      2.25851744	    -12.52788353	      0.00000000	     -3.37236559	     -5.67285561	      0.00000000	      2.60339330	      3.74784132	     -8.65297449	      3.67401260	    -12.55885792	     -7.67284594	      0.00000000	     -8.84805219	     -2.61552857	      1.30702151	      0.12477540	     -3.71394889	     -6.86229876	     27.52191741	     87.53952877	      3.52677858	     -6.94354884	      4.60109792	     23.95397948	     77.01899672
      0.18333330	     -1.18493513	      3.30116326	     30.75699566	      0.34846478	      0.99136396	     -0.09494633	     -0.93595598	      2.31746487	    -12.54812880	      0.00000000	     -3.34992050	     -5.68280191	      0.00000000	      2.46150914	      3.69865095	     -8.57940817	      3.67387869	    -12.54079715	     -7.62572592	      0.00000000	     -8.82789949	     -2.64120928	      1.21833191	      0.07814306	     -3.73493267	     -6.86979276	     27.50948960	     87.54237824	      3.63246493	     -6.93912770	      4.60931802	     23.99002991	     77.02718344
      0.20000000	     -1.15098064	      3.10184638	     30.77541284	      0.34770361	      0.99387030	     -0.09496841	     -0.84727294	      2.55533789	    -12.85515692	      0.00000000	     -3.24015044	     -5.80722038	      0.00000000	      2.10612233	      3.52829043	     -8.34257572	      3.07147478	    -12.55282671	     -7.04534208	      0.00000000	     -8.93594723	     -2.43849567	      1.20373558	      0.07592294	     -3.89030758	     -6.93221698	     27.59147048	     87.60530332	      3.81616080	     -6.90955181	      4.76653272	     24.09747079	     77.16878484
      0.21666670	     -1.11922262	      2.96353952	     30.43681205	      0.34891615	      1.00368783	     -0.09616917	     -0.53070524	      2.65487904	    -13.24693704	      0.00000000	     -3.89975039	     -5.44963829	      0.00000000	      1.58934415	      3.46226021	     -8.49755249	      2.27333883	    -12.68783374	     -6.14108873	      0.00000000	     -9.19264699	     -2.23929706	      1.28346989	      0.15524850	     -4.01525208	     -7.00377321	     27.72808501	     87.70038956	      3.91005540	     -6.85730879	      4.97808555	     24.22862692	     77.36908417
      0.23333330	     -0.80064296	      3.04829329	     30.33695321	      0.35119397	      0.99054529	     -0.09778261	     -0.99548829	      2.76571112	    -13.71949170	      0.00000000	     -3.30937682	     -5.13229635	      0.00000000	      0.73584977	      3.37173179	     -9.18436458	      1.83677773	    -11.12167199	     -3.99407556	      0.00000000	     -9.62908961	     -2.21738299	      1.46415661	      0.06676535	     -4.07317695	     -7.30082956	     28.24006117	     88.09194935	      4.09882604	     -7.05636534	      5.69791808	     24.79548029	     78.17060201
      0.25000000	     -0.84574989	      2.87860143	     30.12235786	      0.34836742	      0.99005957	     -0.09723507	     -0.61518615	      2.84385704	    -14.11805104	      0.00000000	     -3.51241953	     -5.29061147	      0.00000000	      0.53987733	      3.39128382	     -9.20998871	      0.94526972	    -10.87852522	     -3.93974863	      0.00000000	     -9.63462830	     -2.05908772	      1.47686487	      0.15875257	     -4.16952802	     -7.36093236	     28.31337313	     88.12648862	      4.20472851	     -7.00812262	      5.74364545	     24.85798173	     78.24268973
      0.26666670	     -0.92863300	      2.77248583	     30.01965721	      0.34604025	      0.99326454	     -0.09713285	     -0.48359466	      2.89238240	    -14.38971971	      0.00000000	     -3.95575334	     -5.35989013	      0.00000000	      0.20972814	      3.45927561	     -8.90187633	      0.00000000	    -10.74924244	     -3.50955297	      0.00000000	     -9.56115114	     -2.01239523	      1.42936060	      0.12956503	     -4.20700468	     -7.42786203	     28.35807349	     88.17366732	      4.38980675	     -7.03441946	      5.80372792	     24.97331636	     78.34495054
